<?xml version="1.0" encoding="UTF-8"?>
<svg width="19px" height="19px" viewBox="0 0 19 19" version="1.1" xmlns="http://www.w3.org/2000/svg" xmlns:xlink="http://www.w3.org/1999/xlink">
    <!-- Generator: Sketch 49.3 (51167) - http://www.bohemiancoding.com/sketch -->
    <title>Group 5</title>
    <desc>Created with Sketch.</desc>
    <defs></defs>
    <g id="Page-1" stroke="none" stroke-width="1" fill="none" fill-rule="evenodd">
        <g id="Frontpage-Menu-open" transform="translate(-690.000000, -3817.000000)">
            <g id="Group-22" transform="translate(0.000000, 3471.000000)">
                <g id="Group-5" transform="translate(690.000000, 346.000000)">
                    <rect id="Rectangle-3" fill="#2EBAC4" x="0" y="0" width="19" height="19" rx="3"></rect>
                    <g id="noun_806959_cc" transform="translate(5.000000, 4.000000)" fill="#FFFFFF" fill-rule="nonzero">
                        <path d="M2.62151515,7.17363636 L2.62151515,3.43272727 L5.82075758,0.23 C5.90712121,0.143787879 6.02530303,0.0948484848 6.14924242,0.0948484848 C6.40409091,0.0948484848 6.61242424,0.302121212 6.61242424,0.558181818 L6.61242424,10.0478788 C6.61242424,10.1701515 6.56363636,10.2881818 6.47545455,10.3745455 C6.29545455,10.5565152 6.0019697,10.5565152 5.82090909,10.3745455 L2.62151515,7.17363636 Z" id="Shape"></path>
                        <path d="M1.67575758,3.43272727 L0.583333333,3.43272727 C0.327575758,3.43272727 0.120454545,3.63893939 0.120454545,3.89606061 L0.120454545,6.71060606 C0.120454545,6.96575758 0.327575758,7.17378788 0.583333333,7.17378788 L1.67575758,7.17378788 C1.93136364,7.17378788 2.13848485,6.96575758 2.13848485,6.71060606 L2.13848485,3.89590909 C2.13848485,3.63893939 1.93136364,3.43272727 1.67575758,3.43272727 Z" id="Shape"></path>
                        <path d="M7.67181818,3.14409091 L7.22530303,3.66439394 C7.31045455,3.73651515 7.39045455,3.81636364 7.46348485,3.90151515 C8.23681818,4.80636364 8.13106061,6.16651515 7.22530303,6.94090909 L7.67181818,7.46227273 C8.86439394,6.4419697 9.00287879,4.64742424 7.98287879,3.45590909 C7.88727273,3.34378788 7.7830303,3.23954545 7.67181818,3.14409091 Z" id="Shape"></path>
                        <path d="M7.67181818,3.14409091 L7.22530303,3.66439394 C7.31045455,3.73651515 7.39045455,3.81636364 7.46348485,3.90151515 C8.23681818,4.80636364 8.13106061,6.16651515 7.22530303,6.94090909 L7.67181818,7.46227273 C8.86439394,6.4419697 9.00287879,4.64742424 7.98287879,3.45590909 C7.88727273,3.34378788 7.7830303,3.23954545 7.67181818,3.14409091 Z" id="Shape"></path>
                        <path d="M8.01469697,7.86363636 L8.45924242,8.38393939 C10.1619697,6.92878788 10.3618182,4.36863636 8.90545455,2.66787879 C8.76878788,2.50742424 8.62045455,2.3580303 8.45924242,2.22136364 L8.01469697,2.7419697 C8.14787879,2.85515152 8.27181818,2.97909091 8.38484848,3.11227273 C9.59439394,4.52681818 9.42863636,6.65454545 8.01469697,7.86363636 Z" id="Shape"></path>
                    </g>
                </g>
            </g>
        </g>
    </g>
</svg>