<?xml version="1.0" encoding="UTF-8"?>
<svg width="20px" height="20px" viewBox="0 0 20 20" version="1.1" xmlns="http://www.w3.org/2000/svg" xmlns:xlink="http://www.w3.org/1999/xlink">
    <!-- Generator: Sketch 49.3 (51167) - http://www.bohemiancoding.com/sketch -->
    <title>Shape</title>
    <desc>Created with Sketch.</desc>
    <defs></defs>
    <g id="Page-1" stroke="none" stroke-width="1" fill="none" fill-rule="evenodd">
        <g id="Frontpage-Menu-open" transform="translate(-1297.000000, -3550.000000)" fill="#262626" fill-rule="nonzero">
            <g id="Group-22" transform="translate(0.000000, 3471.000000)">
                <g id="Group-26" transform="translate(401.000000, 61.000000)">
                    <g id="noun_875351_cc" transform="translate(896.000000, 18.000000)">
                        <path d="M19.6676698,17.558299 L14.7627407,12.7962755 C17.2289062,9.68366796 16.9822896,5.18767926 14.022891,2.34110654 C12.4061825,0.771501018 10.3236428,0 8.21370119,0 C6.1037596,0 4.02121985,0.771501018 2.40451136,2.34110654 C-0.801503786,5.4537141 -0.801503786,10.5083759 2.40451136,13.6209835 C4.02121985,15.190589 6.1037596,15.96209 8.21370119,15.96209 C9.96741887,15.96209 11.7211366,15.4300204 13.173434,14.3392775 L18.105765,19.0746976 C18.3249797,19.2875255 18.5989981,19.3939394 18.9004183,19.3939394 C19.1744367,19.3939394 19.4758569,19.2875255 19.6950717,19.0746976 C20.1060992,18.6756453 20.1060992,17.9839548 19.6676698,17.558299 Z M8.24110303,13.8072079 C6.62439454,13.8072079 5.14469524,13.1953278 3.99381801,12.1045849 C1.66466171,9.84328886 1.66466171,6.14540466 3.99381801,3.85750509 C5.1172934,2.76676227 6.62439454,2.15488215 8.24110303,2.15488215 C9.85781152,2.15488215 11.3375108,2.76676227 12.488388,3.85750509 C13.6392653,4.94824791 14.2421057,6.4114395 14.2421057,7.98104502 C14.2421057,9.55065054 13.6118634,10.9872386 12.488388,12.1045849 C11.3649127,13.2219312 9.83040968,13.8072079 8.24110303,13.8072079 Z" id="Shape"></path>
                    </g>
                </g>
            </g>
        </g>
    </g>
</svg>