<?xml version="1.0" encoding="UTF-8"?>
<svg width="27px" height="27px" viewBox="0 0 27 27" version="1.1" xmlns="http://www.w3.org/2000/svg" xmlns:xlink="http://www.w3.org/1999/xlink">
    <!-- Generator: Sketch 49.3 (51167) - http://www.bohemiancoding.com/sketch -->
    <title>Shape</title>
    <desc>Created with Sketch.</desc>
    <defs></defs>
    <g id="Page-1" stroke="none" stroke-width="1" fill="none" fill-rule="evenodd">
        <g id="Frontpage-Menu-open" transform="translate(-31.000000, -1674.000000)" fill="#FFFFFF" fill-rule="nonzero">
            <g id="Group-6" transform="translate(0.000000, 60.000000)">
                <g id="noun_1008927_cc" transform="translate(31.000000, 1614.000000)">
                    <path d="M25.7413071,20.1662878 L26.8897213,17.3709434 C27.1967107,16.6238598 26.8410223,15.7677931 26.0926322,15.4601026 L25.45794,15.1993556 C24.7095499,14.8916651 24.1666386,14.1196052 24.1648331,13.4715242 C24.1623755,12.8246971 24.7016758,12.0489258 25.4476084,11.7376744 L26.0817489,11.4732161 C26.8276815,11.1625665 27.1809124,10.3040925 26.8690079,9.55816242 L25.7048455,6.76943825 C25.3935931,6.02285621 24.5363198,5.67088034 23.7903872,5.98152989 L23.1562468,6.24659008 C22.4096622,6.55849347 21.4795159,6.39674907 21.0211132,5.93894973 C20.5621086,5.48175224 20.3954988,4.55281279 20.7031402,3.80502707 L20.9639382,3.17088872 C21.2709778,2.42250116 20.9141358,1.56708645 20.1656956,1.25949625 L17.3709436,0.110484118 C16.6237571,-0.197156233 15.7677377,0.159684507 15.4606982,0.907520384 L15.1992983,1.54221041 C14.8916569,2.29059798 14.1195943,2.8341093 13.471461,2.83596498 C12.8246317,2.8371185 12.0494597,2.2985222 11.7376054,1.55254199 L11.473748,0.918453804 C11.1624454,0.172473599 10.3046204,-0.18010411 9.55808599,0.131147278 L6.76935238,1.29535586 C6.02276781,1.60600541 5.6701889,2.46387763 5.98204319,3.21045968 L6.24650244,3.84394603 C6.55840688,4.59052807 6.39606009,5.52006936 5.93825921,5.97972437 C5.48166201,6.43812554 4.55271942,6.6052865 3.80493116,6.29704431 L3.17023898,6.03684898 C2.42184889,5.72920863 1.56708328,6.08670136 1.25944189,6.83448708 L0.110375711,9.6292798 C-0.197215527,10.3770655 0.160228262,11.2330821 0.907414674,11.5400704 L1.54336069,11.8015196 C2.2905471,12.1091599 2.83406027,12.8806682 2.83586579,13.5287491 C2.83772147,14.1762283 2.2984212,14.9507958 1.55248862,15.2625488 L0.918398285,15.5270071 C0.171813714,15.8389105 -0.180163347,16.6961307 0.131089095,17.4420608 L1.29530162,20.2301831 C1.60595222,20.977367 2.46377719,21.330045 3.21036176,21.0181416 L3.84385025,20.7536833 C4.59043483,20.4429836 5.51997926,20.6046778 5.97958567,21.0612735 C6.43798839,21.5185211 6.60520007,22.4474606 6.29695683,23.1958481 L6.03676063,23.8293345 C5.72972108,24.5777221 6.08661318,25.4343404 6.83440143,25.7413288 L9.62915345,26.8897391 C10.3769417,27.1968278 11.233563,26.8405889 11.5405524,26.092753 L11.8014006,25.4585645 C12.1089918,24.7101769 12.8805027,24.1667157 13.5285858,24.1648601 C14.1760671,24.1624026 14.9506374,24.7016509 15.2624916,25.4476812 L15.5269007,26.0817694 C15.8388052,26.8283013 16.6954265,27.1809292 17.4425627,26.8690258 L20.2306945,25.7048172 C20.9772289,25.3935157 21.3292561,24.5362954 21.0179535,23.7903654 L20.7535444,23.1562772 C20.4422418,22.409645 20.6045385,21.4794517 21.0611858,21.0211508 C21.5183347,20.561546 22.4473274,20.3949367 23.1951157,20.7024768 L23.829206,20.9633241 C24.5776463,21.2709143 25.4337159,20.9140735 25.7413071,20.1662878 Z M11.3625577,18.7011594 C8.48996751,17.5205006 7.11837038,14.2339046 8.2984314,11.3625277 C9.48029795,8.48994726 12.7657014,7.11900676 15.6388934,8.29906379 C18.51028,9.4803245 19.8818269,12.7657168 18.7012142,15.6382472 C17.5199495,18.5102258 14.2345461,19.8824201 11.3625577,18.7011594 Z" id="Shape"></path>
                </g>
            </g>
        </g>
    </g>
</svg>